<svg xmlns="http://www.w3.org/2000/svg" viewBox="0 0 64 64" x="0px" y="0px" fill="#FFF"><path d="M117.995891,182 C120.205402,182 122,183.786144 122,185.995089 L122,198.004911 C122,200.208881 120.207132,202 118.008756,202 L95.9912443,202 C93.7866191,202 92,200.214574 92,198.008845 L92,181.991155 C92,179.783683 93.8001765,178 96.0077023,178 L103.992993,178 C105.176716,178 106.484224,178.652039 107.194908,179.600822 L108.992853,182.00113 C108.991483,181.999997 117.995891,182 117.995891,182 Z M117.995891,222 C120.205402,222 122,223.786144 122,225.995089 L122,238.004911 C122,240.208881 120.207132,242 118.008756,242 L95.9912443,242 C93.7866191,242 92,240.214574 92,238.008845 L92,221.991155 C92,219.783683 93.8001765,218 96.0077023,218 L103.992993,218 C105.176716,218 106.484224,218.652039 107.194908,219.600822 L108.992853,222.00113 C108.991483,221.999997 117.995891,222 117.995891,222 Z M67,196.710121 L67,223.289879 C69.2577795,223.961827 71.0381733,225.74222 71.7101213,228 L84.9951635,228 C85.5566626,228 86,228.45191 86,229.009369 L86,230.990631 C86,231.556647 85.5501194,232 84.9951635,232 L71.7101213,232 C71.0381733,234.25778 69.2577795,236.038173 67,236.710121 L67,243.001659 C67,243.543985 66.5480902,244 65.9906311,244 L64.0093689,244 C63.4433532,244 63,243.553027 63,243.001659 L63,236.710121 C60.1085111,235.849572 58,233.171021 58,230 C58,226.828979 60.1085111,224.150428 63,223.289879 L63,196.710121 C60.1085111,195.849572 58,193.171021 58,190 C58,186.828979 60.1085111,184.150428 63,183.289879 L63,176.998341 C63,176.456015 63.4519098,176 64.0093689,176 L65.9906311,176 C66.5566468,176 67,176.446973 67,176.998341 L67,183.289879 C69.2577795,183.961827 71.0381733,185.74222 71.7101213,188 L84.9951635,188 C85.5566626,188 86,188.45191 86,189.009369 L86,190.990631 C86,191.556647 85.5501194,192 84.9951635,192 L71.7101213,192 C71.0381733,194.25778 69.2577795,196.038173 67,196.710121 Z M65,193 C66.6568542,193 68,191.656854 68,190 C68,188.343146 66.6568542,187 65,187 C63.3431458,187 62,188.343146 62,190 C62,191.656854 63.3431458,193 65,193 Z M65,233 C66.6568542,233 68,231.656854 68,230 C68,228.343146 66.6568542,227 65,227 C63.3431458,227 62,228.343146 62,230 C62,231.656854 63.3431458,233 65,233 Z" transform="translate(-58 -176)"/></svg>