<svg xmlns="http://www.w3.org/2000/svg" x="0px" y="0px" viewBox="0 0 100 100" fill="#FFF" style="enable-background:new 0 0 100 100;"><g><path d="M89.5,35.9v-8.1c0-2.5-2-4.5-4.5-4.5H15c-2.5,0-4.5,2-4.5,4.5v8.1H89.5z M35.5,28.2c1.3,0,2.4,1.1,2.4,2.4   c0,1.3-1.1,2.4-2.4,2.4c-1.3,0-2.4-1.1-2.4-2.4C33.1,29.2,34.2,28.2,35.5,28.2z M27.5,28.2c1.3,0,2.4,1.1,2.4,2.4   c0,1.3-1.1,2.4-2.4,2.4c-1.3,0-2.4-1.1-2.4-2.4C25.1,29.2,26.2,28.2,27.5,28.2z M20.2,28.2c1.3,0,2.4,1.1,2.4,2.4   c0,1.3-1.1,2.4-2.4,2.4c-1.3,0-2.4-1.1-2.4-2.4C17.8,29.2,18.9,28.2,20.2,28.2z"/><path d="M10.5,38.8v33.4c0,2.5,2,4.5,4.5,4.5H85c2.5,0,4.5-2,4.5-4.5V38.8H10.5z M38.8,66.6h-20v-20h20V66.6z M81.1,66.7H47.2v-2.8   h33.9V66.7z M81.1,58H47.2v-2.8h33.9V58z M81.1,49.3H47.2v-2.8h33.9V49.3z"/></g></svg>