<svg xmlns="http://www.w3.org/2000/svg" viewBox="0 0 24 24" fill="#FFF"><path d="M3,16.49a1.64,1.64,0,0,0,1-.37A1.42,1.42,0,0,0,4.44,15a11.08,11.08,0,0,1,.06-2.19A2.79,2.79,0,0,1,5.42,11a2.19,2.19,0,0,1,1.39-.49,2.84,2.84,0,0,1,1.89,1,4.28,4.28,0,0,1,.55.67,33.69,33.69,0,0,0,2.49,3.16A8.37,8.37,0,0,0,13.63,17,7.05,7.05,0,0,0,18,18a7.11,7.11,0,0,0,4.68-2.8,7.71,7.71,0,0,0,1.28-4c0-.12,0-.39,0-.85a7.69,7.69,0,0,0,0-1.4,1.67,1.67,0,0,0-.36-1,1.44,1.44,0,0,0-1.1-.37,8,8,0,0,0-1.52,0,1.9,1.9,0,0,0-1,.31,1.5,1.5,0,0,0-.49,1v2.31A2.43,2.43,0,0,1,18.56,13a2.27,2.27,0,0,1-1.4.42,2.46,2.46,0,0,1-1.77-.85l-3.28-4A7.06,7.06,0,0,0,6.39,6a7,7,0,0,0-5.17,3A7,7,0,0,0,.06,13.14l-.06,2a1.47,1.47,0,0,0,1.46,1.4Z"/></svg>